<svg xmlns:mydata="http://www.w3.org/2000/svg"  version="1.1" xmlns="http://www.w3.org/2000/svg" xmlns:xlink="http://www.w3.org/1999/xlink" style="height: 783px;" viewBox="0 0 550 470">
<defs><linearGradient x1="193.00683" y1="235" x2="356.99317" y2="235" gradientUnits="userSpaceOnUse" id="color-16034140307"><stop offset="0" stop-color="#4568dc"></stop><stop offset="1" stop-color="#b06ab3"></stop></linearGradient></defs>
<path d="M194.56859,331.82246h23.71932l-1.36655,-20.20535c0,0 27.62374,2.24504 27.81896,-24.98826c0.19522,-25.96436 -30.94249,-23.13366 -30.94249,-23.13366l-20.79101,1.07371z" data-paper-data="{&quot;glyphName&quot;:&quot;P&quot;,&quot;glyphIndex&quot;:0,&quot;firstGlyphOfWord&quot;:true,&quot;word&quot;:1}" id="element-id-80398"></path>
<path d="M247.96147,263.10475l27.81896,0.29283l-2.14743,45.97449l28.50223,-3.22114l1.26893,25.3787l-56.4188,0.29283zM282.41793,263.39758h20.59579l-1.17132,11.3228l-21.18145,0.19522zM280.85617,277.06304l20.98623,-0.19522l0.19522,25.96436l-21.47428,2.14743z" data-paper-data="{&quot;glyphName&quot;:&quot;+&quot;,&quot;glyphIndex&quot;:1,&quot;word&quot;:1}" id="element-id-18706"></path>
<path d="M306.82053,331.82246h23.71932l-1.36655,-20.20535c0,0 27.62374,2.24504 27.81896,-24.98826c0.19522,-25.96436 -30.94249,-23.13366 -30.94249,-23.13366l-20.79101,1.07371z" data-paper-data="{&quot;glyphName&quot;:&quot;P&quot;,&quot;glyphIndex&quot;:2,&quot;lastGlyphOfWord&quot;:true,&quot;word&quot;:1}" id="element-id-94568"></path>
</svg>