<svg width="24" height="24" viewBox="0 0 24 24" fill="none" xmlns="http://www.w3.org/2000/svg">
<path fill-rule="evenodd" clip-rule="evenodd" d="M16.0605 4.5H21.75L22.5 5.25V18.75L21.75 19.5H2.25L1.5 18.75V5.25L2.25 4.5H7.9395L9.219 3.219L9.75 3H14.25L14.781 3.219L16.0605 4.5ZM3 18H21V6H15.75L15.219 5.781L13.9395 4.5H10.0605L8.781 5.781L8.25 6H3V18ZM5.25 7.5C5.05109 7.5 4.86032 7.57902 4.71967 7.71967C4.57902 7.86032 4.5 8.05109 4.5 8.25C4.5 8.44891 4.57902 8.63968 4.71967 8.78033C4.86032 8.92098 5.05109 9 5.25 9C5.44891 9 5.63968 8.92098 5.78033 8.78033C5.92098 8.63968 6 8.44891 6 8.25C6 8.05109 5.92098 7.86032 5.78033 7.71967C5.63968 7.57902 5.44891 7.5 5.25 7.5ZM12 9C12.7956 9 13.5587 9.31607 14.1213 9.87868C14.6839 10.4413 15 11.2044 15 12C15 12.7956 14.6839 13.5587 14.1213 14.1213C13.5587 14.6839 12.7956 15 12 15C11.2044 15 10.4413 14.6839 9.87868 14.1213C9.31607 13.5587 9 12.7956 9 12C9 11.2044 9.31607 10.4413 9.87868 9.87868C10.4413 9.31607 11.2044 9 12 9ZM12 7.5C10.8065 7.5 9.66193 7.97411 8.81802 8.81802C7.97411 9.66193 7.5 10.8065 7.5 12C7.5 13.1935 7.97411 14.3381 8.81802 15.182C9.66193 16.0259 10.8065 16.5 12 16.5C13.1935 16.5 14.3381 16.0259 15.182 15.182C16.0259 14.3381 16.5 13.1935 16.5 12C16.5 10.8065 16.0259 9.66193 15.182 8.81802C14.3381 7.97411 13.1935 7.5 12 7.5Z" fill="white"/>
</svg>
