<svg width="32" height="32" viewBox="0 0 32 32" fill="none" xmlns="http://www.w3.org/2000/svg">
<path d="M22.3667 6.40011L27.3778 11.4112C27.5889 11.6223 27.5889 11.9668 27.3778 12.1779L15.2444 24.3112L10.0889 24.8834C9.4 24.9612 8.81667 24.3779 8.89444 23.689L9.46667 18.5334L21.6 6.40011C21.8111 6.189 22.1556 6.189 22.3667 6.40011ZM31.3667 5.12789L28.6556 2.41678C27.8111 1.57234 26.4389 1.57234 25.5889 2.41678L23.6222 4.38345C23.4111 4.59456 23.4111 4.939 23.6222 5.15011L28.6333 10.1612C28.8444 10.3723 29.1889 10.3723 29.4 10.1612L31.3667 8.19456C32.2111 7.34456 32.2111 5.97234 31.3667 5.12789ZM21.3333 21.0112V26.6668H3.55556V8.889H16.3222C16.5 8.889 16.6667 8.81678 16.7944 8.69456L19.0167 6.47234C19.4389 6.05011 19.1389 5.33345 18.5444 5.33345H2.66667C1.19444 5.33345 0 6.52789 0 8.00011V27.5557C0 29.0279 1.19444 30.2223 2.66667 30.2223H22.2222C23.6944 30.2223 24.8889 29.0279 24.8889 27.5557V18.789C24.8889 18.1946 24.1722 17.9001 23.75 18.3168L21.5278 20.539C21.4056 20.6668 21.3333 20.8334 21.3333 21.0112Z" fill="#4568DC"/>
</svg>
