<svg width="24" height="26" viewBox="0 0 24 26" fill="none" xmlns="http://www.w3.org/2000/svg">
<path d="M21.75 6.63635H16.5V4.24998L15.75 3.45453H8.25L7.5 4.24998V6.63635H2.25L1.5 7.4318V20.1591L2.25 20.9545H21.75L22.5 20.1591V7.4318L21.75 6.63635ZM9 5.04544H15V6.63635H9V5.04544ZM21 8.22726V9.43635L15 13V12.2045L14.265 11.4091H9.765L9 12.2045V13L3 9.3568V8.22726H21ZM13.5 13V14.5909H10.5V13H13.5ZM3 19.3636V11.1863L9 14.8295V15.3863L9.75 16.1818H14.25L15 15.3863V14.8932L21 11.2659V19.3636H3Z" fill="#BBBBBB"/>
</svg>
