<svg width="24" height="24" viewBox="0 0 24 24" fill="none" xmlns="http://www.w3.org/2000/svg">
<path fill-rule="evenodd" clip-rule="evenodd" d="M21.75 3H13.5L12.975 3.225L12 4.185L11.025 3.225L10.5 3H2.25L1.5 3.75V18.75L2.25 19.5H10.185L11.475 20.775H12.525L13.815 19.5H21.75L22.5 18.75V3.75L21.75 3ZM11.25 18.48L10.98 18.225L10.5 18H3V4.5H10.185L11.295 5.61L11.25 18.48ZM21 18H13.5L12.975 18.225L12.765 18.42V5.55L13.815 4.5H21V18ZM9 7.5H4.5V9H9V7.5ZM9 13.5H4.5V15H9V13.5ZM4.5 10.5H9V12H4.5V10.5ZM19.5 7.5H15V9H19.5V7.5ZM15 10.5H19.5V12H15V10.5ZM15 13.5H19.5V15H15V13.5Z" fill="black"/>
</svg>
