<svg width="24" height="24" viewBox="0 0 24 24" fill="none" xmlns="http://www.w3.org/2000/svg">
<path d="M12.0001 10.5001C8.27777 10.5001 3.00012 16.2545 3.00012 19.8868C3.00012 21.5227 4.25683 22.5001 6.36293 22.5001C8.6523 22.5001 10.164 21.3245 12.0001 21.3245C13.8521 21.3245 15.3681 22.5001 17.6373 22.5001C19.7434 22.5001 21.0001 21.5227 21.0001 19.8868C21.0001 16.2545 15.7225 10.5001 12.0001 10.5001ZM5.09637 9.90899C4.60887 8.28477 3.10699 7.2329 1.74199 7.55915C0.376991 7.8854 -0.334103 9.46649 0.153397 11.0907C0.640897 12.7149 2.14277 13.7668 3.50777 13.4406C4.87277 13.1143 5.58387 11.5332 5.09637 9.90899ZM9.06762 8.93493C10.5179 8.55337 11.2436 6.59399 10.6886 4.55868C10.1336 2.52337 8.50793 1.18321 7.05762 1.56477C5.6073 1.94634 4.88168 3.90571 5.43668 5.94102C5.99168 7.97634 7.61777 9.31696 9.06762 8.93493ZM22.2578 7.55962C20.8928 7.23337 19.3914 8.28524 18.9034 9.90946C18.4159 11.5337 19.127 13.1148 20.492 13.441C21.857 13.7673 23.3584 12.7154 23.8464 11.0912C24.3339 9.46696 23.6228 7.88587 22.2578 7.55962ZM14.9326 8.93493C16.3829 9.31649 18.0086 7.97634 18.5636 5.94102C19.1186 3.90571 18.3929 1.94681 16.9426 1.56477C15.4923 1.18274 13.8667 2.52337 13.3117 4.55868C12.7567 6.59399 13.4823 8.55337 14.9326 8.93493Z" fill="black"/>
</svg>
