<svg width="24" height="26" viewBox="0 0 24 26" fill="none" xmlns="http://www.w3.org/2000/svg">
<path d="M20.0655 17.0934C19.686 15.8715 19.4921 14.5935 19.491 13.307V10.1284C19.5186 8.11428 18.8409 6.16089 17.589 4.64612C16.3414 3.12897 14.6098 2.15347 12.726 1.90658C11.685 1.79203 10.626 1.90658 9.621 2.26771C8.616 2.60976 7.701 3.18089 6.93 3.94294C6.15515 4.68533 5.53757 5.59357 5.118 6.60771C4.69635 7.62147 4.47627 8.71653 4.4715 9.82453V13.3245C4.4693 14.6057 4.27539 15.8783 3.897 17.095L3 19.9093L3.7185 20.9561H8.976C8.976 21.7929 9.2985 22.6107 9.855 23.2025C10.41 23.7911 11.1825 24.1348 11.973 24.1348C12.762 24.1348 13.533 23.7927 14.0895 23.2025C14.646 22.6123 14.97 21.7929 14.97 20.9561H20.2275L20.9445 19.9093L20.0655 17.0934ZM13.0305 22.1C12.8925 22.2493 12.728 22.3682 12.5465 22.4498C12.365 22.5314 12.1701 22.5742 11.973 22.5757C11.7755 22.5742 11.5803 22.5313 11.3985 22.4494C11.2167 22.3675 11.0521 22.2482 10.914 22.0984C10.773 21.9522 10.6606 21.7778 10.5834 21.5853C10.5061 21.3928 10.4656 21.186 10.464 20.9768H13.4625C13.4688 21.1855 13.4337 21.3933 13.3595 21.5868C13.2854 21.7803 13.1723 21.9551 13.0305 22.1ZM4.758 19.3795L5.3145 17.6073C5.74847 16.2266 5.97277 14.7815 5.979 13.3261V9.82453C5.979 8.92885 6.159 8.05385 6.4995 7.25362C6.84 6.43589 7.3245 5.71203 7.953 5.1218C8.5815 4.51408 9.318 4.05589 10.107 3.79021C10.914 3.50385 11.757 3.40839 12.582 3.50385C14.094 3.71472 15.4803 4.50734 16.4775 5.73112C17.475 6.95643 18.0112 8.52893 17.9835 10.1475V13.3452C17.9835 14.7913 18.1995 16.2375 18.648 17.6263L19.2045 19.397H4.7595V19.3779L4.758 19.3795Z" fill="#BBBBBB"/>
</svg>
