<svg width="24" height="24" viewBox="0 0 24 24" fill="none" xmlns="http://www.w3.org/2000/svg">
<path fill-rule="evenodd" clip-rule="evenodd" d="M20.7945 8.50941C20.964 8.08941 21.5145 6.42141 20.6235 4.16391C20.6235 4.16391 19.245 3.73191 16.1085 5.87091C14.796 5.50341 13.3905 5.45091 12 5.45091C10.608 5.45091 9.204 5.50341 7.8915 5.87091C4.755 3.71841 3.3765 4.16391 3.3765 4.16391C2.484 6.42141 3.036 8.08941 3.207 8.50941C2.142 9.64941 1.5 11.1194 1.5 12.9044C1.5 19.6649 5.871 21.1874 11.973 21.1874C18.078 21.1874 22.5 19.6649 22.5 12.9059C22.5 11.1209 21.8565 9.65091 20.7945 8.50941ZM12 19.9019C7.668 19.9019 4.152 19.7039 4.152 15.5039C4.152 14.5064 4.65 13.5614 5.49 12.7874C6.894 11.5019 9.2955 12.1844 12 12.1844C14.7165 12.1844 17.0925 11.5019 18.51 12.7874C19.3635 13.5614 19.8495 14.4944 19.8495 15.5039C19.8495 19.6904 16.3305 19.9019 12 19.9019ZM8.706 13.3244C7.839 13.3244 7.131 14.3744 7.131 15.6599C7.131 16.9469 7.839 18.0089 8.706 18.0089C9.5715 18.0089 10.281 16.9589 10.281 15.6599C10.281 14.3609 9.5715 13.3244 8.706 13.3244ZM15.294 13.3244C14.4285 13.3244 13.719 14.3609 13.719 15.6599C13.719 16.9589 14.4285 18.0089 15.294 18.0089C16.161 18.0089 16.869 16.9589 16.869 15.6599C16.869 14.3609 16.1745 13.3244 15.294 13.3244Z" fill="black"/>
</svg>
