<svg width="24" height="24" viewBox="0 0 24 24" fill="none" xmlns="http://www.w3.org/2000/svg">
<path d="M16.2 14.25C14.8547 14.25 14.2078 15 12 15C9.79219 15 9.15 14.25 7.8 14.25C4.32187 14.25 1.5 17.0719 1.5 20.55V21.75C1.5 22.9922 2.50781 24 3.75 24H20.25C21.4922 24 22.5 22.9922 22.5 21.75V20.55C22.5 17.0719 19.6781 14.25 16.2 14.25ZM20.25 21.75H3.75V20.55C3.75 18.3188 5.56875 16.5 7.8 16.5C8.48437 16.5 9.59531 17.25 12 17.25C14.4234 17.25 15.5109 16.5 16.2 16.5C18.4312 16.5 20.25 18.3188 20.25 20.55V21.75ZM12 13.5C15.7266 13.5 18.75 10.4766 18.75 6.75C18.75 3.02344 15.7266 0 12 0C8.27344 0 5.25 3.02344 5.25 6.75C5.25 10.4766 8.27344 13.5 12 13.5ZM12 2.25C14.4797 2.25 16.5 4.27031 16.5 6.75C16.5 9.22969 14.4797 11.25 12 11.25C9.52031 11.25 7.5 9.22969 7.5 6.75C7.5 4.27031 9.52031 2.25 12 2.25Z" fill="#4568DC"/>
</svg>
