<svg width="32" height="32" viewBox="0 0 32 32" fill="none" xmlns="http://www.w3.org/2000/svg">
<path d="M16 0.5C7.4375 0.5 0.5 7.4375 0.5 16C0.5 24.5625 7.4375 31.5 16 31.5C24.5625 31.5 31.5 24.5625 31.5 16C31.5 7.4375 24.5625 0.5 16 0.5ZM25 17.75C25 18.1625 24.6625 18.5 24.25 18.5H18.5V24.25C18.5 24.6625 18.1625 25 17.75 25H14.25C13.8375 25 13.5 24.6625 13.5 24.25V18.5H7.75C7.3375 18.5 7 18.1625 7 17.75V14.25C7 13.8375 7.3375 13.5 7.75 13.5H13.5V7.75C13.5 7.3375 13.8375 7 14.25 7H17.75C18.1625 7 18.5 7.3375 18.5 7.75V13.5H24.25C24.6625 13.5 25 13.8375 25 14.25V17.75Z" fill="#4568DC"/>
</svg>
