<svg width="32" height="32" viewBox="0 0 32 32" fill="none" xmlns="http://www.w3.org/2000/svg">
<g clip-path="url(#clip0_347_10679)">
<path d="M15.9053 0C11.6701 0.0250609 7.61766 1.7283 4.63619 4.73637C1.65473 7.74444 -0.0124603 11.8119 7.01249e-05 16.0472C0.0126005 20.2825 1.70383 24.34 4.70304 27.3304C7.70225 30.3208 11.7647 32 16 32C20.2353 32 24.2977 30.3208 27.297 27.3304C30.2962 24.34 31.9874 20.2825 31.9999 16.0472C32.0125 11.8119 30.3453 7.74444 27.3638 4.73637C24.3823 1.7283 20.3299 0.0250609 16.0947 0H15.9053ZM15.9053 8.14208C17.8053 8.16708 19.6182 8.9426 20.9484 10.2994C22.2787 11.6562 23.0183 13.4841 23.0058 15.3841C22.9933 17.2842 22.2297 19.1022 20.8817 20.4414C19.5337 21.7805 17.7108 22.5321 15.8107 22.5321C13.9105 22.5321 12.0876 21.7805 10.7396 20.4414C9.39161 19.1022 8.62804 17.2842 8.61554 15.3841C8.60304 13.4841 9.34262 11.6562 10.6729 10.2994C12.0031 8.9426 13.816 8.16708 15.716 8.14208H15.9053ZM5.30178 27.1245C7.00592 24.9154 9.12032 23.8109 11.645 23.8109H20.355C22.8797 23.8109 24.9941 24.9154 26.6982 27.1245C23.8122 29.8684 19.9822 31.3984 16 31.3984C12.0178 31.3984 8.18783 29.8684 5.30178 27.1245Z" fill="#BBBBBB"/>
</g>
<defs>
<clipPath id="clip0_347_10679">
<rect width="32" height="32" fill="white"/>
</clipPath>
</defs>
</svg>
