<svg width="24" height="24" viewBox="0 0 24 24" fill="none" xmlns="http://www.w3.org/2000/svg">
<path d="M1.5 24H22.5V21H1.5V24ZM19.5 12H16.38C15.6178 12 15 11.3822 15 10.62V10.1765C15 8.89357 15.4162 7.67294 16.0059 6.53341C16.433 5.70794 16.6106 4.73388 16.4302 3.70122C16.1128 1.88341 14.6269 0.387158 12.8086 0.070752C9.96656 -0.423779 7.5 1.74981 7.5 4.49997C7.5 5.16372 7.64625 5.79091 7.90734 6.35528C8.53219 7.70763 9 9.12653 9 10.6167V10.62C9 11.3822 8.38219 12 7.62 12H4.5C2.01469 12 0 14.0147 0 16.5V18C0 18.8283 0.671719 19.5 1.5 19.5H22.5C23.3283 19.5 24 18.8283 24 18V16.5C24 14.0147 21.9853 12 19.5 12Z" />
</svg>
