<svg version="1.1" xmlns="http://www.w3.org/2000/svg" xmlns:xlink="http://www.w3.org/1999/xlink" class="thumbnail-icon" viewBox="16.600048065185547 0 166.7998809814453 200">
        <defs>
            <linearGradient id="grad">
                <stop offset="0%" stop-color="#4568dc"/>
                <stop offset="100%" stop-color="#b06ab3"/>
            </linearGradient>
        </defs>
<g data-paper-data="{&quot;fillRule&quot;:&quot;nonzero&quot;,&quot;isIcon&quot;:true,&quot;iconStyle&quot;:&quot;standalone&quot;,&quot;selectedEffects&quot;:{&quot;container&quot;:&quot;&quot;,&quot;transformation&quot;:&quot;&quot;,&quot;pattern&quot;:&quot;&quot;},&quot;bounds&quot;:{&quot;x&quot;:225.03360419576853,&quot;y&quot;:115,&quot;width&quot;:99.93279160846294,&quot;height&quot;:119.82356297391419},&quot;iconType&quot;:&quot;icon&quot;,&quot;rawIconId&quot;:&quot;69ffd31e-bb40-4965-ba45-bc8b81870cc0&quot;,&quot;isDetailed&quot;:false}"><path fill="url(#grad)" d="M62.09308,122.51696c0,-5.60627 4.54478,-10.15105 10.15105,-10.15105c5.60627,0 10.15105,4.54478 10.15105,10.15105c0,5.60627 -4.54478,10.15105 -10.15105,10.15105c-5.60627,0 -10.15105,-4.54478 -10.15105,-10.15105zM102.68754,123.94914c0,-4.84062 3.9241,-8.76472 8.76472,-8.76472c4.84062,0 8.76472,3.9241 8.76472,8.76472c0,4.84062 -3.9241,8.76472 -8.76472,8.76472c-4.84062,0 -8.76472,-3.9241 -8.76472,-8.76472zM84.10056,122.64213c0,-2.32688 1.88631,-4.21319 4.21319,-4.21319c2.32688,0 4.21319,1.88631 4.21319,4.21319c0,2.32688 -1.88631,4.21319 -4.21319,4.21319c-2.32688,0 -4.21319,-1.88631 -4.21319,-4.21319zM120.7962,129.5018c0,-2.08852 1.69308,-3.78161 3.78161,-3.78161c2.08852,0 3.78161,1.69308 3.78161,3.78161c0,2.08852 -1.69308,3.78161 -3.78161,3.78161c-2.08852,0 -3.78161,-1.69308 -3.78161,-3.78161zM103.122,145.78268c0,-4.85188 3.93323,-8.7851 8.7851,-8.7851c4.85188,0 8.7851,3.93323 8.7851,8.7851c0,4.85188 -3.93323,8.7851 -8.7851,8.7851c-4.85188,0 -8.7851,-3.93323 -8.7851,-8.7851zM95.8274,134.60912c0,-2.62587 2.12869,-4.75455 4.75455,-4.75455c2.62587,0 4.75455,2.12869 4.75455,4.75455c0,2.62587 -2.12869,4.75455 -4.75455,4.75455c-2.62587,0 -4.75455,-2.12869 -4.75455,-4.75455zM89.50626,148.62957c0,-2.87414 2.32995,-5.2041 5.2041,-5.2041c2.87414,0 5.2041,2.32995 5.2041,5.2041c0,2.87414 -2.32995,5.2041 -5.2041,5.2041c-2.87414,0 -5.2041,-2.32995 -5.2041,-5.2041zM167.26902,83.31378c0,-3.42324 2.77509,-6.19833 6.19833,-6.19833c3.42324,0 6.19833,2.77509 6.19833,6.19833c0,3.42324 -2.77509,6.19833 -6.19833,6.19833c-3.42324,0 -6.19833,-2.77509 -6.19833,-6.19833zM149.1055,87.56328c0,-4.69918 3.80944,-8.50861 8.50861,-8.50861c4.69918,0 8.50861,3.80944 8.50861,8.50861c0,4.69918 -3.80944,8.50861 -8.50861,8.50861c-4.69918,0 -8.50861,-3.80944 -8.50861,-8.50861zM164.24694,100.66884c0,-5.0963 4.13137,-9.22766 9.22766,-9.22766c5.0963,0 9.22766,4.13137 9.22766,9.22766c0,5.0963 -4.13137,9.22766 -9.22766,9.22766c-5.0963,0 -9.22766,-4.13137 -9.22766,-9.22766zM155.84005,117.83708c0,-4.69918 3.80944,-8.50861 8.50861,-8.50861c4.69918,0 8.50861,3.80944 8.50861,8.50861c0,4.69918 -3.80944,8.50861 -8.50861,8.50861c-4.69918,0 -8.50861,-3.80944 -8.50861,-8.50861zM164.94314,30.4734c0,-2.12271 1.7208,-3.84351 3.84351,-3.84351c2.12271,0 3.84351,1.7208 3.84351,3.84351c0,2.12271 -1.7208,3.84351 -3.84351,3.84351c-2.12271,0 -3.84351,-1.7208 -3.84351,-3.84351zM153.6516,34.55814c0,-2.58583 2.09623,-4.68206 4.68206,-4.68206c2.58583,0 4.68206,2.09623 4.68206,4.68206c0,2.58583 -2.09623,4.68206 -4.68206,4.68206c-2.58583,0 -4.68206,-2.09623 -4.68206,-4.68206zM166.81495,41.0661c0,-3.13278 2.53962,-5.67241 5.67241,-5.67241c3.13278,0 5.67241,2.53962 5.67241,5.67241c0,3.13278 -2.53962,5.67241 -5.67241,5.67241c-3.13278,0 -5.67241,-2.53962 -5.67241,-5.67241zM148.90105,49.4257c0,-4.69918 3.80944,-8.50861 8.50861,-8.50861c4.69918,0 8.50861,3.80944 8.50861,8.50861c0,4.69918 -3.80944,8.50861 -8.50861,8.50861c-4.69918,0 -8.50861,-3.80944 -8.50861,-8.50861zM166.00025,61.54892c0,-4.8048 3.89506,-8.69985 8.69985,-8.69985c4.8048,0 8.69985,3.89506 8.69985,8.69985c0,4.8048 -3.89506,8.69985 -8.69985,8.69985c-4.8048,0 -8.69985,-3.89506 -8.69985,-8.69985zM152.78986,71.57411c0,-3.20586 2.59886,-5.80472 5.80472,-5.80472c3.20586,0 5.80472,2.59886 5.80472,5.80472c0,3.20586 -2.59886,5.80472 -5.80472,5.80472c-3.20586,0 -5.80472,-2.59886 -5.80472,-5.80472zM122.24157,143.34302c0,-4.69918 3.80944,-8.50861 8.50861,-8.50861c4.69918,0 8.50861,3.80944 8.50861,8.50861c0,4.69918 -3.80944,8.50861 -8.50861,8.50861c-4.69918,0 -8.50861,-3.80944 -8.50861,-8.50861zM123.49197,114.95479c0,-4.9355 4.00101,-8.93651 8.93651,-8.93651c4.9355,0 8.93651,4.00101 8.93651,8.93651c0,4.9355 -4.00101,8.93651 -8.93651,8.93651c-4.9355,0 -8.93651,-4.00101 -8.93651,-8.93651zM128.32414,88.53864c0,-5.02439 4.07308,-9.09747 9.09747,-9.09747c5.02439,0 9.09747,4.07308 9.09747,9.09747c0,5.02439 -4.07308,9.09747 -9.09747,9.09747c-5.02439,0 -9.09747,-4.07308 -9.09747,-9.09747zM139.9103,104.41452c0,-4.69918 3.80944,-8.50861 8.50861,-8.50861c4.69918,0 8.50861,3.80944 8.50861,8.50861c0,4.69918 -3.80944,8.50861 -8.50861,8.50861c-4.69918,0 -8.50861,-3.80944 -8.50861,-8.50861zM144.11521,135.31551c0,-4.88729 3.96193,-8.84923 8.84923,-8.84923c4.88729,0 8.84923,3.96193 8.84923,8.84923c0,4.88729 -3.96193,8.84923 -8.84923,8.84923c-4.88729,0 -8.84923,-3.96193 -8.84923,-8.84923zM141.48418,121.56649c0,-2.17046 1.75951,-3.92997 3.92997,-3.92997c2.17046,0 3.92997,1.75951 3.92997,3.92997c0,2.17046 -1.75951,3.92997 -3.92997,3.92997c-2.17046,0 -3.92997,-1.75951 -3.92997,-3.92997zM132.99775,130.07086c0,-2.66454 2.16003,-4.82457 4.82457,-4.82457c2.66454,0 4.82457,2.16003 4.82457,4.82457c0,2.66454 -2.16003,4.82457 -4.82457,4.82457c-2.66454,0 -4.82457,-2.16003 -4.82457,-4.82457zM110.1573,58.08343c0,-5.5342 4.48636,-10.02056 10.02056,-10.02056c5.5342,0 10.02056,4.48636 10.02056,10.02056c0,5.5342 -4.48636,10.02056 -10.02056,10.02056c-5.5342,0 -10.02056,-4.48636 -10.02056,-10.02056zM112.97138,29.61052c0,-5.40165 4.37891,-9.78056 9.78056,-9.78056c5.40165,0 9.78056,4.37891 9.78056,9.78056c0,5.40165 -4.37891,9.78056 -9.78056,9.78056c-5.40165,0 -9.78056,-4.37891 -9.78056,-9.78056zM130.60184,69.16239c0,-4.78231 3.87683,-8.65913 8.65913,-8.65913c4.78231,0 8.65913,3.87683 8.65913,8.65913c0,4.78231 -3.87683,8.65913 -8.65913,8.65913c-4.78231,0 -8.65913,-3.87683 -8.65913,-8.65913zM132.73512,38.84476c0,-4.87892 3.95515,-8.83407 8.83407,-8.83407c4.87892,0 8.83407,3.95515 8.83407,8.83407c0,4.87892 -3.95515,8.83407 -8.83407,8.83407c-4.87892,0 -8.83407,-3.95515 -8.83407,-8.83407zM138.21601,18.24458c0,-5.03424 4.08105,-9.11529 9.11529,-9.11529c5.03424,0 9.11529,4.08105 9.11529,9.11529c0,5.03424 -4.08105,9.11529 -9.11529,9.11529c-5.03424,0 -9.11529,-4.08105 -9.11529,-9.11529zM124.10555,12.57305c0,-3.68621 2.98827,-6.67448 6.67448,-6.67448c3.68621,0 6.67448,2.98827 6.67448,6.67448c0,3.68621 -2.98827,6.67448 -6.67448,6.67448c-3.68621,0 -6.67448,-2.98827 -6.67448,-6.67448zM133.34205,53.59804c0,-2.56412 2.07863,-4.64275 4.64275,-4.64275c2.56412,0 4.64275,2.07863 4.64275,4.64275c0,2.56412 -2.07863,4.64275 -4.64275,4.64275c-2.56412,0 -4.64275,-2.07863 -4.64275,-4.64275zM68.02074,26.5057c0,-4.96557 4.02539,-8.99097 8.99097,-8.99097c4.96557,0 8.99097,4.02539 8.99097,8.99097c0,4.96557 -4.02539,8.99097 -8.99097,8.99097c-4.96557,0 -8.99097,-4.02539 -8.99097,-8.99097zM75.8344,46.57853c0,-5.00121 4.05428,-9.05549 9.05549,-9.05549c5.00121,0 9.05549,4.05428 9.05549,9.05549c0,5.00121 -4.05428,9.05549 -9.05549,9.05549c-5.00121,0 -9.05549,-4.05428 -9.05549,-9.05549zM91.49213,21.4837c0,-5.08404 4.12143,-9.20547 9.20547,-9.20547c5.08404,0 9.20547,4.12143 9.20547,9.20547c0,5.08404 -4.12143,9.20547 -9.20547,9.20547c-5.08404,0 -9.20547,-4.12143 -9.20547,-9.20547zM97.29479,40.22134c0,-4.69918 3.80944,-8.50861 8.50861,-8.50861c4.69918,0 8.50861,3.80944 8.50861,8.50861c0,4.69918 -3.80944,8.50861 -8.50861,8.50861c-4.69918,0 -8.50861,-3.80944 -8.50861,-8.50861zM105.97113,7.45846c0,-3.67594 2.97994,-6.65589 6.65589,-6.65589c3.67594,0 6.65589,2.97994 6.65589,6.65589c0,3.67594 -2.97994,6.65589 -6.65589,6.65589c-3.67594,0 -6.65589,-2.97994 -6.65589,-6.65589zM82.70546,8.23799c0,-3.63141 2.94384,-6.57525 6.57525,-6.57525c3.63141,0 6.57525,2.94384 6.57525,6.57525c0,3.63141 -2.94384,6.57525 -6.57525,6.57525c-3.63141,0 -6.57525,-2.94384 -6.57525,-6.57525zM97.03729,4.62913c0,-2.08852 1.69308,-3.78161 3.78161,-3.78161c2.08852,0 3.78161,1.69308 3.78161,3.78161c0,2.08852 -1.69308,3.78161 -3.78161,3.78161c-2.08852,0 -3.78161,-1.69308 -3.78161,-3.78161zM68.82121,76.27642c0,-5.64714 4.57792,-10.22506 10.22506,-10.22506c5.64714,0 10.22506,4.57792 10.22506,10.22506c0,5.64714 -4.57792,10.22506 -10.22506,10.22506c-5.64714,0 -10.22506,-4.57792 -10.22506,-10.22506zM111.7755,79.61017c0,-4.62894 3.7525,-8.38144 8.38144,-8.38144c4.62894,0 8.38144,3.7525 8.38144,8.38144c0,4.62894 -3.7525,8.38144 -8.38144,8.38144c-4.62894,0 -8.38144,-3.7525 -8.38144,-8.38144zM111.43551,98.20555c0,-4.69918 3.80944,-8.50861 8.50861,-8.50861c4.69918,0 8.50861,3.80944 8.50861,8.50861c0,4.69918 -3.80944,8.50861 -8.50861,8.50861c-4.69918,0 -8.50861,-3.80944 -8.50861,-8.50861zM66.13543,101.59403c0,-5.14058 4.16726,-9.30785 9.30785,-9.30785c5.14058,0 9.30785,4.16726 9.30785,9.30785c0,5.14058 -4.16726,9.30785 -9.30785,9.30785c-5.14058,0 -9.30785,-4.16726 -9.30785,-9.30785zM89.73814,109.77055c0,-4.82939 3.91499,-8.74438 8.74438,-8.74438c4.82939,0 8.74438,3.91499 8.74438,8.74438c0,4.82939 -3.91499,8.74438 -8.74438,8.74438c-4.82939,0 -8.74438,-3.91499 -8.74438,-8.74438zM49.43043,190.33594c0,-5.33731 4.32675,-9.66406 9.66406,-9.66406c5.33731,0 9.66406,4.32675 9.66406,9.66406c0,5.33731 -4.32675,9.66406 -9.66406,9.66406c-5.33731,0 -9.66406,-4.32675 -9.66406,-9.66406zM52.11265,163.37729c0,-5.72313 4.63952,-10.36265 10.36265,-10.36265c5.72313,0 10.36265,4.63952 10.36265,10.36265c0,5.72313 -4.63952,10.36265 -10.36265,10.36265c-5.72313,0 -10.36265,-4.63952 -10.36265,-10.36265zM70.37468,192.12584c0,-3.55384 2.88096,-6.4348 6.4348,-6.4348c3.55384,0 6.4348,2.88096 6.4348,6.4348c0,3.55384 -2.88096,6.4348 -6.4348,6.4348c-3.55384,0 -6.4348,-2.88096 -6.4348,-6.4348zM71.35635,174.38028c0,-4.69918 3.80944,-8.50861 8.50861,-8.50861c4.69918,0 8.50861,3.80944 8.50861,8.50861c0,4.69918 -3.80944,8.50861 -8.50861,8.50861c-4.69918,0 -8.50861,-3.80944 -8.50861,-8.50861zM80.48883,160.14517c0,-2.42564 1.96637,-4.392 4.392,-4.392c2.42564,0 4.392,1.96637 4.392,4.392c0,2.42564 -1.96637,4.392 -4.392,4.392c-2.42564,0 -4.392,-1.96637 -4.392,-4.392zM16.60005,164.88747c0,-2.43081 1.97056,-4.40137 4.40137,-4.40137c2.43081,0 4.40137,1.97056 4.40137,4.40137c0,2.43081 -1.97056,4.40137 -4.40137,4.40137c-2.43081,0 -4.40137,-1.97056 -4.40137,-4.40137zM23.40637,186.47945c0,-3.64002 2.95082,-6.59083 6.59083,-6.59083c3.64002,0 6.59083,2.95082 6.59083,6.59083c0,3.64002 -2.95082,6.59083 -6.59083,6.59083c-3.64002,0 -6.59083,-2.95082 -6.59083,-6.59083zM24.30312,174.0207c0,-2.34541 1.90133,-4.24675 4.24675,-4.24675c2.34541,0 4.24675,1.90133 4.24675,4.24675c0,2.34541 -1.90133,4.24675 -4.24675,4.24675c-2.34541,0 -4.24675,-1.90133 -4.24675,-4.24675zM25.67453,158.20737c0,-4.73539 3.83879,-8.57418 8.57418,-8.57418c4.73539,0 8.57418,3.83879 8.57418,8.57418c0,4.73539 -3.83879,8.57418 -8.57418,8.57418c-4.73539,0 -8.57418,-3.83879 -8.57418,-8.57418zM35.30944,176.91862c0,-4.69918 3.80944,-8.50861 8.50861,-8.50861c4.69918,0 8.50861,3.80944 8.50861,8.50861c0,4.69918 -3.80944,8.50861 -8.50861,8.50861c-4.69918,0 -8.50861,-3.80944 -8.50861,-8.50861zM26.35757,36.3136c0,-3.36484 2.72775,-6.09259 6.09259,-6.09259c3.36484,0 6.09259,2.72775 6.09259,6.09259c0,3.36484 -2.72775,6.09259 -6.09259,6.09259c-3.36484,0 -6.09259,-2.72775 -6.09259,-6.09259zM48.29343,42.15745c0,-5.54905 4.49839,-10.04744 10.04744,-10.04744c5.54905,0 10.04744,4.49839 10.04744,10.04744c0,5.54905 -4.49839,10.04744 -10.04744,10.04744c-5.54905,0 -10.04744,-4.49839 -10.04744,-10.04744zM32.98805,53.80345c0,-4.76441 3.86232,-8.62672 8.62672,-8.62672c4.76441,0 8.62672,3.86232 8.62672,8.62672c0,4.76441 -3.86232,8.62672 -8.62672,8.62672c-4.76441,0 -8.62672,-3.86232 -8.62672,-8.62672zM51.27832,64.8591c0,-4.8246 3.91111,-8.73571 8.73571,-8.73571c4.8246,0 8.73571,3.91111 8.73571,8.73571c0,4.8246 -3.91111,8.73571 -8.73571,8.73571c-4.8246,0 -8.73571,-3.91111 -8.73571,-8.73571zM22.57493,65.20516c0,-3.60866 2.92539,-6.53405 6.53405,-6.53405c3.60866,0 6.53405,2.92539 6.53405,6.53405c0,3.60866 -2.92539,6.53405 -6.53405,6.53405c-3.60866,0 -6.53405,-2.92539 -6.53405,-6.53405zM23.3559,46.60179c0,-2.08852 1.69308,-3.78161 3.78161,-3.78161c2.08852,0 3.78161,1.69308 3.78161,3.78161c0,2.08852 -1.69308,3.78161 -3.78161,3.78161c-2.08852,0 -3.78161,-1.69308 -3.78161,-3.78161zM66.66506,53.63291c0,-2.53512 2.05512,-4.59025 4.59025,-4.59025c2.53512,0 4.59025,2.05512 4.59025,4.59025c0,2.53512 -2.05512,4.59025 -4.59025,4.59025c-2.53512,0 -4.59025,-2.05512 -4.59025,-4.59025zM30.9249,78.39317c0,-4.69918 3.80944,-8.50861 8.50861,-8.50861c4.69918,0 8.50861,3.80944 8.50861,8.50861c0,4.69918 -3.80944,8.50861 -8.50861,8.50861c-4.69918,0 -8.50861,-3.80944 -8.50861,-8.50861zM51.17667,83.8072c0,-4.69918 3.80944,-8.50861 8.50861,-8.50861c4.69918,0 8.50861,3.80944 8.50861,8.50861c0,4.69918 -3.80944,8.50861 -8.50861,8.50861c-4.69918,0 -8.50861,-3.80944 -8.50861,-8.50861zM40.50083,93.96269c0,-3.44569 2.79328,-6.23897 6.23897,-6.23897c3.44569,0 6.23897,2.79328 6.23897,6.23897c0,3.44569 -2.79328,6.23897 -6.23897,6.23897c-3.44569,0 -6.23897,-2.79328 -6.23897,-6.23897zM18.50673,102.65303c0,-5.31514 4.30877,-9.62391 9.62391,-9.62391c5.31514,0 9.62391,4.30877 9.62391,9.62391c0,5.31514 -4.30877,9.62391 -9.62391,9.62391c-5.31514,0 -9.62391,-4.30877 -9.62391,-9.62391zM50.02927,105.20572c0,-4.07524 3.30364,-7.37888 7.37888,-7.37888c4.07524,0 7.37888,3.30364 7.37888,7.37888c0,4.07524 -3.30364,7.37888 -7.37888,7.37888c-4.07524,0 -7.37888,-3.30364 -7.37888,-7.37888zM17.22162,78.3501c0,-3.313 2.68571,-5.99871 5.99871,-5.99871c3.313,0 5.99871,2.68571 5.99871,5.99871c0,3.313 -2.68571,5.99871 -5.99871,5.99871c-3.313,0 -5.99871,-2.68571 -5.99871,-5.99871zM18.40112,119.16432c0,-3.13278 2.53962,-5.67241 5.67241,-5.67241c3.13278,0 5.67241,2.53962 5.67241,5.67241c0,3.13278 -2.53962,5.67241 -5.67241,5.67241c-3.13278,0 -5.67241,-2.53962 -5.67241,-5.67241zM43.37038,122.26865c0,-4.69918 3.80944,-8.50861 8.50861,-8.50861c4.69918,0 8.50861,3.80944 8.50861,8.50861c0,4.69918 -3.80944,8.50861 -8.50861,8.50861c-4.69918,0 -8.50861,-3.80944 -8.50861,-8.50861zM72.64703,141.28128c0,-4.69918 3.80944,-8.50861 8.50861,-8.50861c4.69918,0 8.50861,3.80944 8.50861,8.50861c0,4.69918 -3.80944,8.50861 -8.50861,8.50861c-4.69918,0 -8.50861,-3.80944 -8.50861,-8.50861zM44.18967,142.80095c0,-5.24589 4.25263,-9.49852 9.49852,-9.49852c5.24589,0 9.49852,4.25263 9.49852,9.49852c0,5.24589 -4.25263,9.49852 -9.49852,9.49852c-5.24589,0 -9.49852,-4.25263 -9.49852,-9.49852zM31.3553,140.10617c0,-3.13278 2.53962,-5.67241 5.67241,-5.67241c3.13278,0 5.67241,2.53962 5.67241,5.67241c0,3.13278 -2.53962,5.67241 -5.67241,5.67241c-3.13278,0 -5.67241,-2.53962 -5.67241,-5.67241zM22.9312,146.33614c0,-2.08852 1.69308,-3.78161 3.78161,-3.78161c2.08852,0 3.78161,1.69308 3.78161,3.78161c0,2.08852 -1.69308,3.78161 -3.78161,3.78161c-2.08852,0 -3.78161,-1.69308 -3.78161,-3.78161zM33.17892,115.38938c0,-2.60846 2.11458,-4.72304 4.72304,-4.72304c2.60846,0 4.72304,2.11458 4.72304,4.72304c0,2.60846 -2.11458,4.72304 -4.72304,4.72304c-2.60846,0 -4.72304,-2.11458 -4.72304,-4.72304zM16.60022,134.9749c0,-2.80542 2.27424,-5.07966 5.07966,-5.07966c2.80542,0 5.07966,2.27424 5.07966,5.07966c0,2.80542 -2.27424,5.07966 -5.07966,5.07966c-2.80542,0 -5.07966,-2.27424 -5.07966,-5.07966zM30.13073,127.72166c0,-2.83446 2.29778,-5.13224 5.13224,-5.13224c2.83446,0 5.13224,2.29778 5.13224,5.13224c0,2.83446 -2.29778,5.13224 -5.13224,5.13224c-2.83446,0 -5.13224,-2.29778 -5.13224,-5.13224zM36.12864,6.21647c0,-3.43326 2.78321,-6.21647 6.21647,-6.21647c3.43326,0 6.21647,2.78321 6.21647,6.21647c0,3.43326 -2.78321,6.21647 -6.21647,6.21647c-3.43326,0 -6.21647,-2.78321 -6.21647,-6.21647zM23.05952,9.35363c0,-3.23793 2.62486,-5.86278 5.86278,-5.86278c3.23793,0 5.86278,2.62486 5.86278,5.86278c0,3.23793 -2.62486,5.86278 -5.86278,5.86278c-3.23793,0 -5.86278,-2.62486 -5.86278,-5.86278zM55.36961,12.49169c0,-4.69918 3.80944,-8.50861 8.50861,-8.50861c4.69918,0 8.50861,3.80944 8.50861,8.50861c0,4.69918 -3.80944,8.50861 -8.50861,8.50861c-4.69918,0 -8.50861,-3.80944 -8.50861,-8.50861zM35.90322,24.97128c0,-5.06782 4.10828,-9.17609 9.17609,-9.17609c5.06782,0 9.17609,4.10828 9.17609,9.17609c0,5.06782 -4.10828,9.17609 -9.17609,9.17609c-5.06782,0 -9.17609,-4.10828 -9.17609,-9.17609zM17.30233,26.60998c0,-3.16284 2.56399,-5.72682 5.72682,-5.72682c3.16284,0 5.72682,2.56399 5.72682,5.72682c0,3.16284 -2.56399,5.72682 -5.72682,5.72682c-3.16284,0 -5.72682,-2.56399 -5.72682,-5.72682zM56.88421,26.79763c0,-2.08852 1.69308,-3.78161 3.78161,-3.78161c2.08852,0 3.78161,1.69308 3.78161,3.78161c0,2.08852 -1.69308,3.78161 -3.78161,3.78161c-2.08852,0 -3.78161,-1.69308 -3.78161,-3.78161z" fill-rule="nonzero"></path></g></svg>